<?xml version="1.0" encoding="UTF-8"?>
<svg xmlns="http://www.w3.org/2000/svg" width="1280" height="1580" viewBox="0 0 1280 1580" role="img">
<title>Target Perception, Tracking and Reacquisition</title>
<desc>The measurement path and the explicit feedback loops used when masks, depth or tracking degrade</desc>
<defs>
<marker id="data-arrow" markerWidth="10" markerHeight="10" refX="8" refY="3" orient="auto" markerUnits="strokeWidth">
<path d="M0,0 L0,6 L9,3 z" fill="#52606D"/>
</marker>
<marker id="control-arrow" markerWidth="10" markerHeight="10" refX="8" refY="3" orient="auto" markerUnits="strokeWidth">
<path d="M0,0 L0,6 L9,3 z" fill="#2563A6"/>
</marker>
<marker id="feedback-arrow" markerWidth="10" markerHeight="10" refX="8" refY="3" orient="auto" markerUnits="strokeWidth">
<path d="M0,0 L0,6 L9,3 z" fill="#147D70"/>
</marker>
<marker id="command-arrow" markerWidth="10" markerHeight="10" refX="8" refY="3" orient="auto" markerUnits="strokeWidth">
<path d="M0,0 L0,6 L9,3 z" fill="#B33A3A"/>
</marker>
<marker id="optional-arrow" markerWidth="10" markerHeight="10" refX="8" refY="3" orient="auto" markerUnits="strokeWidth">
<path d="M0,0 L0,6 L9,3 z" fill="#929AA5"/>
</marker>
<style>
.title{font:700 40px Arial,Helvetica,sans-serif;fill:#17212B}
.subtitle{font:18px Arial,Helvetica,sans-serif;fill:#52606D}
.lane-title{font:700 20px Arial,Helvetica,sans-serif;fill:#24303C}
.lane-subtitle{font:14px Arial,Helvetica,sans-serif;fill:#687684}
.node-title{font:700 21px Arial,Helvetica,sans-serif;fill:#17212B}
.detail{font:16.5px Arial,Helvetica,sans-serif;fill:#344250}
.edge-label-bg{fill:#fff;fill-opacity:.96}
.edge-label{font:700 14.5px Arial,Helvetica,sans-serif;fill:#344250}
.badge{font:700 12.5px Arial,Helvetica,sans-serif;fill:#fff;letter-spacing:.35px}
.legend{font:14.5px Arial,Helvetica,sans-serif;fill:#46515E}
.note{font:15px Arial,Helvetica,sans-serif;fill:#52606D}
</style>
</defs>
<rect width="100%" height="100%" fill="#FFFFFF"/>
<text x="640.0" y="49" class="title" text-anchor="middle">Target Perception, Tracking and Reacquisition</text>
<text x="640.0" y="78" class="subtitle" text-anchor="middle">The measurement path and the explicit feedback loops used when masks, depth or tracking degrade</text>
<line x1="65" y1="108" x2="103" y2="108" stroke="#52606D" stroke-width="3" marker-end="url(#data-arrow)"/>
<text x="113" y="112" class="legend" text-anchor="start">data / evidence</text>
<line x1="270" y1="108" x2="308" y2="108" stroke="#2563A6" stroke-width="3" marker-end="url(#control-arrow)"/>
<text x="318" y="112" class="legend" text-anchor="start">mission control</text>
<line x1="475" y1="108" x2="513" y2="108" stroke="#147D70" stroke-width="3" stroke-dasharray="8 6" marker-end="url(#feedback-arrow)"/>
<text x="523" y="112" class="legend" text-anchor="start">feedback / retry</text>
<line x1="680" y1="108" x2="718" y2="108" stroke="#B33A3A" stroke-width="3" marker-end="url(#command-arrow)"/>
<text x="728" y="112" class="legend" text-anchor="start">motor command</text>
<line x1="885" y1="108" x2="923" y2="108" stroke="#929AA5" stroke-width="3" stroke-dasharray="8 6" marker-end="url(#optional-arrow)"/>
<text x="933" y="112" class="legend" text-anchor="start">branch-only / optional</text>
<polyline points="640.0000000000001,300 288.0,365" fill="none" stroke="#52606D" stroke-width="2.2" stroke-linecap="round" stroke-linejoin="round" marker-end="url(#data-arrow)"/>
<polyline points="640.0000000000001,300 640.0,365" fill="none" stroke="#52606D" stroke-width="2.2" stroke-linecap="round" stroke-linejoin="round" marker-end="url(#data-arrow)"/>
<polyline points="640.0000000000001,300 992.0000000000001,365" fill="none" stroke="#52606D" stroke-width="2.2" stroke-linecap="round" stroke-linejoin="round" marker-end="url(#data-arrow)"/>
<polyline points="453.0,447.5 486.00000000000006,447.5" fill="none" stroke="#52606D" stroke-width="2.2" stroke-linecap="round" stroke-linejoin="round" marker-end="url(#data-arrow)"/>
<polyline points="794.0,447.5 827.0000000000001,447.5" fill="none" stroke="#52606D" stroke-width="2.2" stroke-linecap="round" stroke-linejoin="round" marker-end="url(#data-arrow)"/>
<polyline points="992.0000000000001,530 992.0000000000001,575 849.0000000000001,575 849.0000000000001,685 827.0000000000001,685.0" fill="none" stroke="#52606D" stroke-width="2.2" stroke-linecap="round" stroke-linejoin="round" marker-end="url(#data-arrow)"/>
<polyline points="640.0000000000001,760 640.0000000000001,835" fill="none" stroke="#52606D" stroke-width="2.2" stroke-linecap="round" stroke-linejoin="round" marker-end="url(#data-arrow)"/>
<polyline points="640.0000000000001,1010 288.0,1085" fill="none" stroke="#52606D" stroke-width="2.2" stroke-linecap="round" stroke-linejoin="round" marker-end="url(#data-arrow)"/>
<polyline points="640.0000000000001,1010 640.0,1085" fill="none" stroke="#52606D" stroke-width="2.2" stroke-linecap="round" stroke-linejoin="round" marker-end="url(#data-arrow)"/>
<polyline points="1157.0,447.5 1190.0,447 1190.0,1172 1157.0,1172 1157.0,1172.5" fill="none" stroke="#52606D" stroke-width="2.2" stroke-linecap="round" stroke-linejoin="round" marker-end="url(#data-arrow)"/>
<polyline points="794.0,447.5 810.5000000000001,550 810.5000000000001,1172 827.0000000000001,1172 827.0000000000001,1172.5" fill="none" stroke="#52606D" stroke-width="2.2" stroke-linecap="round" stroke-linejoin="round" marker-end="url(#data-arrow)"/>
<polyline points="288.0,1260 640.0,1355" fill="none" stroke="#52606D" stroke-width="2.2" stroke-linecap="round" stroke-linejoin="round" marker-end="url(#data-arrow)"/>
<polyline points="640.0,1260 640.0,1355" fill="none" stroke="#52606D" stroke-width="2.2" stroke-linecap="round" stroke-linejoin="round" marker-end="url(#data-arrow)"/>
<polyline points="992.0000000000001,1260 640.0,1355" fill="none" stroke="#52606D" stroke-width="2.2" stroke-linecap="round" stroke-linejoin="round" marker-end="url(#data-arrow)"/>
<polyline points="453.00000000000006,922.5 84.5,922 84.5,447 123.0,447 123.0,447.5" fill="none" stroke="#147D70" stroke-width="2.2" stroke-linecap="round" stroke-linejoin="round" stroke-dasharray="8 6" marker-end="url(#feedback-arrow)"/>
<polyline points="1157.0,1172.5 1201.0,1172 1201.0,330 288.0,330 288.0,365 453.0,447.5" fill="none" stroke="#147D70" stroke-width="2.2" stroke-linecap="round" stroke-linejoin="round" stroke-dasharray="8 6" marker-end="url(#feedback-arrow)"/>
<polyline points="453.00000000000006,685.0 425.50000000000006,685 425.50000000000006,447 486.00000000000006,447 486.00000000000006,447.5" fill="none" stroke="#147D70" stroke-width="2.2" stroke-linecap="round" stroke-linejoin="round" stroke-dasharray="8 6" marker-end="url(#feedback-arrow)"/>
<rect x="453.00000000000006" y="155" width="374.00000000000006" height="145" rx="14" fill="#EAF3FF" stroke="#2563A6" stroke-width="1.6"/>
<rect x="453.00000000000006" y="155" width="7" height="145" rx="3.5" fill="#2563A6" opacity="0.9"/>
<text x="477.00000000000006" y="190" class="node-title" text-anchor="start">L515 synchronized evidence</text>
<text x="477.00000000000006" y="221" class="detail" text-anchor="start"><tspan x="477.00000000000006" dy="0">RGB + aligned/native depth + confidence</tspan><tspan x="477.00000000000006" dy="23">CameraInfo, timestamps and camera-frame TF</tspan><tspan x="477.00000000000006" dy="23">timestamp watchdog must remain healthy</tspan></text>
<rect x="123.0" y="365" width="330.0" height="165" rx="14" fill="#F2EAFF" stroke="#7851A9" stroke-width="1.6"/>
<rect x="123.0" y="365" width="7" height="165" rx="3.5" fill="#7851A9" opacity="0.9"/>
<text x="147.0" y="400" class="node-title" text-anchor="start">GroundingDINO heavy worker</text>
<text x="147.0" y="431" class="detail" text-anchor="start"><tspan x="147.0" dy="0">open-label acquisition / correlated refresh</tspan><tspan x="147.0" dy="23">local-cache model readiness</tspan><tspan x="147.0" dy="23">permission-bounded request/result spool</tspan></text>
<rect x="486.00000000000006" y="365" width="308.0" height="165" rx="14" fill="#F2EAFF" stroke="#7851A9" stroke-width="1.6"/>
<rect x="486.00000000000006" y="365" width="7" height="165" rx="3.5" fill="#7851A9" opacity="0.9"/>
<text x="510.00000000000006" y="400" class="node-title" text-anchor="start">SAM 2 live worker</text>
<text x="510.00000000000006" y="431" class="detail" text-anchor="start"><tspan x="510.00000000000006" dy="0">seed from grounded target</tspan><tspan x="510.00000000000006" dy="23">propagate dense target mask</tspan><tspan x="510.00000000000006" dy="23">publish confidence and identity</tspan></text>
<rect x="827.0000000000001" y="365" width="330.0" height="165" rx="14" fill="#F2EAFF" stroke="#7851A9" stroke-width="1.6"/>
<rect x="827.0000000000001" y="365" width="7" height="165" rx="3.5" fill="#7851A9" opacity="0.9"/>
<text x="851.0000000000001" y="400" class="node-title" text-anchor="start">Ambiguity-aware depth</text>
<text x="851.0000000000001" y="431" class="detail" text-anchor="start"><tspan x="851.0000000000001" dy="0">mask is support, not depth proof</tspan><tspan x="851.0000000000001" dy="23">qualified component / confidence gate</tspan><tspan x="851.0000000000001" dy="23">invalid or tied layers fail closed</tspan></text>
<rect x="453.00000000000006" y="610" width="374.00000000000006" height="150" rx="14" fill="#E5F7F3" stroke="#147D70" stroke-width="1.6"/>
<rect x="453.00000000000006" y="610" width="7" height="150" rx="3.5" fill="#147D70" opacity="0.9"/>
<text x="477.00000000000006" y="645" class="node-title" text-anchor="start">Measured Target3D</text>
<text x="477.00000000000006" y="676" class="detail" text-anchor="start"><tspan x="477.00000000000006" dy="0">finite camera-frame point from fresh mask/depth</tspan><tspan x="477.00000000000006" dy="23">source-stamped transform to base_link</tspan><tspan x="477.00000000000006" dy="23">invalid evidence publishes an explicit reason</tspan></text>
<rect x="453.00000000000006" y="835" width="374.00000000000006" height="175" rx="14" fill="#E5F7F3" stroke="#147D70" stroke-width="1.6"/>
<rect x="453.00000000000006" y="835" width="7" height="175" rx="3.5" fill="#147D70" opacity="0.9"/>
<text x="477.00000000000006" y="870" class="node-title" text-anchor="start">Timestamped Kalman tracker</text>
<text x="477.00000000000006" y="901" class="detail" text-anchor="start"><tspan x="477.00000000000006" dy="0">innovation-gated measurement correction</tspan><tspan x="477.00000000000006" dy="23">short outage: LOW_CONFIDENCE prediction</tspan><tspan x="477.00000000000006" dy="23">long outage: LOST and reset</tspan><tspan x="477.00000000000006" dy="23">settled measured lock required for planning</tspan></text>
<rect x="123.0" y="1085" width="330.0" height="175" rx="14" fill="#E5F7F3" stroke="#147D70" stroke-width="1.6"/>
<rect x="123.0" y="1085" width="7" height="175" rx="3.5" fill="#147D70" opacity="0.9"/>
<text x="147.0" y="1120" class="node-title" text-anchor="start">Target geometry</text>
<text x="147.0" y="1151" class="detail" text-anchor="start"><tspan x="147.0" dy="0">landmark, cloud and envelope</tspan><tspan x="147.0" dy="23">1 mm refined target cloud</tspan><tspan x="147.0" dy="23">5 mm NBV evidence grid</tspan><tspan x="147.0" dy="23">prediction is planning-only</tspan></text>
<rect x="486.00000000000006" y="1085" width="308.0" height="175" rx="14" fill="#E5F7F3" stroke="#147D70" stroke-width="1.6"/>
<rect x="486.00000000000006" y="1085" width="7" height="175" rx="3.5" fill="#147D70" opacity="0.9"/>
<text x="510.00000000000006" y="1120" class="node-title" text-anchor="start">Scene evidence</text>
<text x="510.00000000000006" y="1151" class="detail" text-anchor="start"><tspan x="510.00000000000006" dy="0">obstacle instance boxes</tspan><tspan x="510.00000000000006" dy="23">camera timestamp and tracking health</tspan><tspan x="510.00000000000006" dy="23">freshness + correlation metadata</tspan></text>
<rect x="827.0000000000001" y="1085" width="330.0" height="175" rx="14" fill="#FDE9E7" stroke="#B33A3A" stroke-width="1.6"/>
<rect x="827.0000000000001" y="1085" width="7" height="175" rx="3.5" fill="#B33A3A" opacity="0.9"/>
<text x="851.0000000000001" y="1120" class="node-title" text-anchor="start">Quality and occlusion</text>
<text x="851.0000000000001" y="1151" class="detail" text-anchor="start"><tspan x="851.0000000000001" dy="0">framing, silhouette and target quality</tspan><tspan x="851.0000000000001" dy="23">CLEAR or labelled occlusion</tspan><tspan x="851.0000000000001" dy="23">person/hand remains a terminal blocker</tspan></text>
<rect x="365.0" y="1355" width="550.0" height="170" rx="14" fill="#FFF3D9" stroke="#B77900" stroke-width="1.6"/>
<rect x="365.0" y="1355" width="7" height="170" rx="3.5" fill="#B77900" opacity="0.9"/>
<text x="389.0" y="1390" class="node-title" text-anchor="start">Consumers with independent gates</text>
<text x="389.0" y="1421" class="detail" text-anchor="start"><tspan x="389.0" dy="0">NBV + planner snapshot | executor runtime safety</tspan><tspan x="389.0" dy="23">settled capture admission | GUI diagnostics</tspan><tspan x="389.0" dy="23">none of these perception paths owns a motor publisher</tspan></text>
<rect x="413.20000000000005" y="308.5" width="101.6" height="23" rx="5" class="edge-label-bg"/>
<text x="464.00000000000006" y="325.5" class="edge-label" text-anchor="middle">settled RGB</text>
<rect x="589.2" y="308.5" width="101.6" height="23" rx="5" class="edge-label-bg"/>
<text x="640.0" y="325.5" class="edge-label" text-anchor="middle">live frames</text>
<rect x="738.6000000000001" y="308.5" width="154.79999999999998" height="23" rx="5" class="edge-label-bg"/>
<text x="816.0000000000001" y="325.5" class="edge-label" text-anchor="middle">depth + confidence</text>
<rect x="843.5000000000001" y="583.5" width="132.0" height="23" rx="5" class="edge-label-bg"/>
<text x="909.5000000000001" y="600.5" class="edge-label" text-anchor="middle">qualified point</text>
<rect x="589.2000000000002" y="773.5" width="101.6" height="23" rx="5" class="edge-label-bg"/>
<text x="640.0000000000001" y="790.5" class="edge-label" text-anchor="middle">measurement</text>
<rect x="405.6000000000001" y="1023.5" width="116.8" height="23" rx="5" class="edge-label-bg"/>
<text x="464.00000000000006" y="1040.5" class="edge-label" text-anchor="middle">stable target</text>
<rect x="558.8" y="1023.5" width="162.4" height="23" rx="5" class="edge-label-bg"/>
<text x="640.0" y="1040.5" class="edge-label" text-anchor="middle">health + covariance</text>
<rect x="1025.8000000000002" y="793" width="162.4" height="23" rx="5" class="edge-label-bg"/>
<text x="1181.2" y="810" class="edge-label" text-anchor="end">support / ambiguity</text>
<rect x="748.4000000000001" y="803" width="139.6" height="23" rx="5" class="edge-label-bg"/>
<text x="818.2" y="820" class="edge-label" text-anchor="middle">mask / detection</text>
<rect x="101.10000000000004" y="898" width="230.79999999999998" height="23" rx="5" class="edge-label-bg"/>
<text x="216.50000000000003" y="915" class="edge-label" text-anchor="middle">LOST / bounded reacquisition</text>
<rect x="704.0000000000001" y="306" width="246.0" height="23" rx="5" class="edge-label-bg"/>
<text x="827.0000000000001" y="323" class="edge-label" text-anchor="middle">one correlated settled refresh</text>
<text x="640.0" y="1556" class="note" text-anchor="middle">Short prediction gaps never become measured coverage; a recovered fresh measurement must pass the same gates again.</text>
</svg>

