<?xml version="1.0" encoding="UTF-8"?>
<svg xmlns="http://www.w3.org/2000/svg" width="1320" height="5050" viewBox="0 0 1320 5050" role="img">
<title>PiPER Active-View Scanning: Detailed System Architecture</title>
<desc>One command path, accepted-only evidence, and explicit feedback from request to reconstruction</desc>
<defs>
<marker id="data-arrow" markerWidth="10" markerHeight="10" refX="8" refY="3" orient="auto" markerUnits="strokeWidth">
<path d="M0,0 L0,6 L9,3 z" fill="#52606D"/>
</marker>
<marker id="control-arrow" markerWidth="10" markerHeight="10" refX="8" refY="3" orient="auto" markerUnits="strokeWidth">
<path d="M0,0 L0,6 L9,3 z" fill="#2563A6"/>
</marker>
<marker id="feedback-arrow" markerWidth="10" markerHeight="10" refX="8" refY="3" orient="auto" markerUnits="strokeWidth">
<path d="M0,0 L0,6 L9,3 z" fill="#147D70"/>
</marker>
<marker id="command-arrow" markerWidth="10" markerHeight="10" refX="8" refY="3" orient="auto" markerUnits="strokeWidth">
<path d="M0,0 L0,6 L9,3 z" fill="#B33A3A"/>
</marker>
<marker id="optional-arrow" markerWidth="10" markerHeight="10" refX="8" refY="3" orient="auto" markerUnits="strokeWidth">
<path d="M0,0 L0,6 L9,3 z" fill="#929AA5"/>
</marker>
<style>
.title{font:700 40px Arial,Helvetica,sans-serif;fill:#17212B}
.subtitle{font:18px Arial,Helvetica,sans-serif;fill:#52606D}
.lane-title{font:700 20px Arial,Helvetica,sans-serif;fill:#24303C}
.lane-subtitle{font:14px Arial,Helvetica,sans-serif;fill:#687684}
.node-title{font:700 21px Arial,Helvetica,sans-serif;fill:#17212B}
.detail{font:16.5px Arial,Helvetica,sans-serif;fill:#344250}
.edge-label-bg{fill:#fff;fill-opacity:.96}
.edge-label{font:700 14.5px Arial,Helvetica,sans-serif;fill:#344250}
.badge{font:700 12.5px Arial,Helvetica,sans-serif;fill:#fff;letter-spacing:.35px}
.legend{font:14.5px Arial,Helvetica,sans-serif;fill:#46515E}
.note{font:15px Arial,Helvetica,sans-serif;fill:#52606D}
</style>
</defs>
<rect width="100%" height="100%" fill="#FFFFFF"/>
<text x="660.0" y="49" class="title" text-anchor="middle">PiPER Active-View Scanning: Detailed System Architecture</text>
<text x="660.0" y="78" class="subtitle" text-anchor="middle">One command path, accepted-only evidence, and explicit feedback from request to reconstruction</text>
<style>
.title{font-size:40px}
.subtitle{font-size:18px}
.legend{font-size:14px}
.system-map .lane-title{font-size:24px}
.system-map .lane-subtitle{font-size:16px}
.system-map .node-title{font-size:21px}
.system-map .detail{font-size:16.5px}
.system-map .edge-label{font-size:15px}
.system-map .badge{font-size:12.5px}
.system-map .note{font-size:15px}
</style>
<line x1="170" y1="112" x2="208" y2="112" stroke="#52606D" stroke-width="3" marker-end="url(#data-arrow)"/>
<text x="218" y="116" class="legend" text-anchor="start">data / evidence</text>
<line x1="395" y1="112" x2="433" y2="112" stroke="#2563A6" stroke-width="3" marker-end="url(#control-arrow)"/>
<text x="443" y="116" class="legend" text-anchor="start">mission control</text>
<line x1="620" y1="112" x2="658" y2="112" stroke="#147D70" stroke-width="3" stroke-dasharray="8 6" marker-end="url(#feedback-arrow)"/>
<text x="668" y="116" class="legend" text-anchor="start">feedback / retry</text>
<line x1="845" y1="112" x2="883" y2="112" stroke="#B33A3A" stroke-width="3" marker-end="url(#command-arrow)"/>
<text x="893" y="116" class="legend" text-anchor="start">motor command</text>
<line x1="1070" y1="112" x2="1108" y2="112" stroke="#929AA5" stroke-width="3" stroke-dasharray="8 6" marker-end="url(#optional-arrow)"/>
<text x="1118" y="116" class="legend" text-anchor="start">branch-only / optional</text>
<g class="system-map">
<rect x="90" y="140" width="1140" height="420" rx="18" fill="#FAFBFC" stroke="#D7DDE5" stroke-width="1.2"/>
<path d="M 90 210 H 1230" stroke="#D7DDE5" stroke-width="1.2"/>
<text x="114" y="170" class="lane-title" text-anchor="start">1  Request and freeze mission intent</text>
<text x="114" y="194" class="lane-subtitle" text-anchor="start">External task ownership; the tracked base is never commanded here.</text>
<rect x="90" y="585" width="1140" height="500" rx="18" fill="#FAFBFC" stroke="#D7DDE5" stroke-width="1.2"/>
<path d="M 90 655 H 1230" stroke="#D7DDE5" stroke-width="1.2"/>
<text x="114" y="615" class="lane-title" text-anchor="start">2  Orchestrate one owned mission</text>
<text x="114" y="639" class="lane-subtitle" text-anchor="start">Admission, process generations and terminal lifecycle remain correlated.</text>
<rect x="90" y="1110" width="1140" height="680" rx="18" fill="#FAFBFC" stroke="#D7DDE5" stroke-width="1.2"/>
<path d="M 90 1180 H 1230" stroke="#D7DDE5" stroke-width="1.2"/>
<text x="114" y="1140" class="lane-title" text-anchor="start">3  Produce measured target and scene evidence</text>
<text x="114" y="1164" class="lane-subtitle" text-anchor="start">Timestamped RGB-D, calibration and isolated AI feed ROS safety evidence.</text>
<rect x="90" y="1815" width="1140" height="485" rx="18" fill="#FAFBFC" stroke="#D7DDE5" stroke-width="1.2"/>
<path d="M 90 1885 H 1230" stroke="#D7DDE5" stroke-width="1.2"/>
<text x="114" y="1845" class="lane-title" text-anchor="start">4  Select the next useful and feasible view</text>
<text x="114" y="1869" class="lane-subtitle" text-anchor="start">Accepted captures alone change measured coverage.</text>
<rect x="90" y="2325" width="1140" height="760" rx="18" fill="#FAFBFC" stroke="#D7DDE5" stroke-width="1.2"/>
<path d="M 90 2395 H 1230" stroke="#D7DDE5" stroke-width="1.2"/>
<text x="114" y="2355" class="lane-title" text-anchor="start">5  Propose motion through one frozen backend</text>
<text x="114" y="2379" class="lane-subtitle" text-anchor="start">Tesseract is on main; cuRobo is branch-only and hardware-unqualified.</text>
<rect x="90" y="3110" width="1140" height="555" rx="18" fill="#FAFBFC" stroke="#D7DDE5" stroke-width="1.2"/>
<path d="M 90 3180 H 1230" stroke="#D7DDE5" stroke-width="1.2"/>
<text x="114" y="3140" class="lane-title" text-anchor="start">6  Authorize and execute through one command owner</text>
<text x="114" y="3164" class="lane-subtitle" text-anchor="start">All planner backends traverse the same fail-closed physical boundary.</text>
<rect x="90" y="3690" width="1140" height="710" rx="18" fill="#FAFBFC" stroke="#D7DDE5" stroke-width="1.2"/>
<path d="M 90 3760 H 1230" stroke="#D7DDE5" stroke-width="1.2"/>
<text x="114" y="3720" class="lane-title" text-anchor="start">7  Admit or reject the settled observation</text>
<text x="114" y="3744" class="lane-subtitle" text-anchor="start">Acceptance, retry and rejection deliberately have different feedback effects.</text>
<rect x="90" y="4425" width="1140" height="500" rx="18" fill="#FAFBFC" stroke="#D7DDE5" stroke-width="1.2"/>
<path d="M 90 4495 H 1230" stroke="#D7DDE5" stroke-width="1.2"/>
<text x="114" y="4455" class="lane-title" text-anchor="start">8  Recover safely, correlate base home and reconstruct</text>
<text x="114" y="4479" class="lane-subtitle" text-anchor="start">Offline reconstruction consumes immutable evidence after the required safe state.</text>
<polyline points="380,390 380,402 480,402 480,415" fill="none" stroke="#2563A6" stroke-width="2.2" stroke-linecap="round" stroke-linejoin="round" marker-end="url(#control-arrow)"/>
<polyline points="940,390 940,402 840,402 840,415" fill="none" stroke="#2563A6" stroke-width="2.2" stroke-linecap="round" stroke-linejoin="round" marker-end="url(#control-arrow)"/>
<polyline points="660,570 660,655 380,655 380,675" fill="none" stroke="#52606D" stroke-width="2.2" stroke-linecap="round" stroke-linejoin="round" marker-end="url(#data-arrow)"/>
<polyline points="630,757.5 690,762.5" fill="none" stroke="#2563A6" stroke-width="2.2" stroke-linecap="round" stroke-linejoin="round" marker-end="url(#control-arrow)"/>
<polyline points="940,850 940,875" fill="none" stroke="#2563A6" stroke-width="2.2" stroke-linecap="round" stroke-linejoin="round" marker-end="url(#control-arrow)"/>
<polyline points="380,1085 380,1200" fill="none" stroke="#2563A6" stroke-width="2.2" stroke-linecap="round" stroke-linejoin="round" marker-end="url(#control-arrow)"/>
<polyline points="630,1280.0 690,1292.5" fill="none" stroke="#52606D" stroke-width="2.2" stroke-linecap="round" stroke-linejoin="round" marker-end="url(#data-arrow)"/>
<polyline points="380,1350 380,1395" fill="none" stroke="#52606D" stroke-width="2.2" stroke-linecap="round" stroke-linejoin="round" marker-end="url(#data-arrow)"/>
<polyline points="940,1370 940,1395" fill="none" stroke="#52606D" stroke-width="2.2" stroke-linecap="round" stroke-linejoin="round" marker-end="url(#data-arrow)"/>
<polyline points="630,1487.5 690,1487.5" fill="none" stroke="#52606D" stroke-width="2.2" stroke-linecap="round" stroke-linejoin="round" marker-end="url(#data-arrow)"/>
<polyline points="850,1570 850,1582 380,1582 380,1595" fill="none" stroke="#52606D" stroke-width="2.2" stroke-linecap="round" stroke-linejoin="round" marker-end="url(#data-arrow)"/>
<polyline points="1030,1570 1030,1582 940,1582 940,1595" fill="none" stroke="#52606D" stroke-width="2.2" stroke-linecap="round" stroke-linejoin="round" marker-end="url(#data-arrow)"/>
<polyline points="630,2010.0 690,2010.0" fill="none" stroke="#52606D" stroke-width="2.2" stroke-linecap="round" stroke-linejoin="round" marker-end="url(#data-arrow)"/>
<polyline points="380,1720 380,1765 1210,1765 1210,1885 940,1885 940,1905" fill="none" stroke="#52606D" stroke-width="2.2" stroke-linecap="round" stroke-linejoin="round" marker-end="url(#data-arrow)"/>
<polyline points="940,1720 1220,1720 1220,2120 940,2120 940,2140" fill="none" stroke="#52606D" stroke-width="2.2" stroke-linecap="round" stroke-linejoin="round" marker-end="url(#data-arrow)"/>
<polyline points="940,2115 940,2127 760,2127 760,2140" fill="none" stroke="#52606D" stroke-width="2.2" stroke-linecap="round" stroke-linejoin="round" marker-end="url(#data-arrow)"/>
<polyline points="660,2305 660,2415" fill="none" stroke="#52606D" stroke-width="2.2" stroke-linecap="round" stroke-linejoin="round" marker-end="url(#data-arrow)"/>
<polyline points="520,2625 520,2637 380,2637 380,2650" fill="none" stroke="#52606D" stroke-width="2.2" stroke-linecap="round" stroke-linejoin="round" marker-end="url(#data-arrow)"/>
<polyline points="800,2625 800,2637 940,2637 940,2650" fill="none" stroke="#929AA5" stroke-width="2.2" stroke-linecap="round" stroke-linejoin="round" stroke-dasharray="8 6" marker-end="url(#optional-arrow)"/>
<polyline points="380,2855 380,2867 520,2867 520,2880" fill="none" stroke="#52606D" stroke-width="2.2" stroke-linecap="round" stroke-linejoin="round" marker-end="url(#data-arrow)"/>
<polyline points="940,2855 940,2867 800,2867 800,2880" fill="none" stroke="#929AA5" stroke-width="2.2" stroke-linecap="round" stroke-linejoin="round" stroke-dasharray="8 6" marker-end="url(#optional-arrow)"/>
<polyline points="520,3090 520,3180 380,3180 380,3200" fill="none" stroke="#52606D" stroke-width="2.2" stroke-linecap="round" stroke-linejoin="round" marker-end="url(#data-arrow)"/>
<polyline points="630,3282.5 690,3282.5" fill="none" stroke="#52606D" stroke-width="2.2" stroke-linecap="round" stroke-linejoin="round" marker-end="url(#data-arrow)"/>
<polyline points="940,3365 940,3377 380,3377 380,3390" fill="none" stroke="#2563A6" stroke-width="2.2" stroke-linecap="round" stroke-linejoin="round" marker-end="url(#control-arrow)"/>
<polyline points="630,3470 690,3470" fill="none" stroke="#B33A3A" stroke-width="2.2" stroke-linecap="round" stroke-linejoin="round" marker-end="url(#command-arrow)"/>
<polyline points="690,3550 630,3550" fill="none" stroke="#147D70" stroke-width="2.2" stroke-linecap="round" stroke-linejoin="round" stroke-dasharray="8 6" marker-end="url(#feedback-arrow)"/>
<polyline points="380,3610 380,3780" fill="none" stroke="#2563A6" stroke-width="2.2" stroke-linecap="round" stroke-linejoin="round" marker-end="url(#control-arrow)"/>
<polyline points="630,3870.0 690,3875.0" fill="none" stroke="#2563A6" stroke-width="2.2" stroke-linecap="round" stroke-linejoin="round" marker-end="url(#control-arrow)"/>
<polyline points="940,3960 940,3972 380,3972 380,3985" fill="none" stroke="#52606D" stroke-width="2.2" stroke-linecap="round" stroke-linejoin="round" marker-end="url(#data-arrow)"/>
<polyline points="630,4080.0 690,4080.0" fill="none" stroke="#52606D" stroke-width="2.2" stroke-linecap="round" stroke-linejoin="round" marker-end="url(#data-arrow)"/>
<polyline points="380,4175 380,4200" fill="none" stroke="#147D70" stroke-width="2.2" stroke-linecap="round" stroke-linejoin="round" stroke-dasharray="8 6" marker-end="url(#feedback-arrow)"/>
<polyline points="940,4175 940,4200" fill="none" stroke="#52606D" stroke-width="2.2" stroke-linecap="round" stroke-linejoin="round" marker-end="url(#data-arrow)"/>
<polyline points="690,4272.5 75,4272 75,2010 130,2010 130,2010.0" fill="none" stroke="#147D70" stroke-width="2.2" stroke-linecap="round" stroke-linejoin="round" stroke-dasharray="8 6" marker-end="url(#feedback-arrow)"/>
<polyline points="130,4272.5 45,4272 45,1482 130,1482 130,1487.5" fill="none" stroke="#147D70" stroke-width="2.2" stroke-linecap="round" stroke-linejoin="round" stroke-dasharray="8 6" marker-end="url(#feedback-arrow)"/>
<polyline points="270,4200 270,4185 60,4185 60,2010 690,2010 690,2010.0" fill="none" stroke="#147D70" stroke-width="2.2" stroke-linecap="round" stroke-linejoin="round" stroke-dasharray="8 6" marker-end="url(#feedback-arrow)"/>
<polyline points="220,2520.0 55,2520 55,1980 690,1980 690,2010.0" fill="none" stroke="#147D70" stroke-width="2.2" stroke-linecap="round" stroke-linejoin="round" stroke-dasharray="8 6" marker-end="url(#feedback-arrow)"/>
<polyline points="1190,1657.5 1240,1657 1240,3500 630,3500 630,3500.0" fill="none" stroke="#147D70" stroke-width="2.2" stroke-linecap="round" stroke-linejoin="round" stroke-dasharray="8 6" marker-end="url(#feedback-arrow)"/>
<polyline points="1190,3500.0 1270,3500 1270,2510 1100,2510 1100,2520.0" fill="none" stroke="#147D70" stroke-width="2.2" stroke-linecap="round" stroke-linejoin="round" stroke-dasharray="8 6" marker-end="url(#feedback-arrow)"/>
<polyline points="1190,3450 1290,3450 1290,970 1100,970 1100,980.0" fill="none" stroke="#147D70" stroke-width="2.2" stroke-linecap="round" stroke-linejoin="round" stroke-dasharray="8 6" marker-end="url(#feedback-arrow)"/>
<polyline points="1100,980.0 1250,980 1250,4495 630,4495 630,4602.5" fill="none" stroke="#2563A6" stroke-width="2.2" stroke-linecap="round" stroke-linejoin="round" marker-end="url(#control-arrow)"/>
<polyline points="630,4602.5 690,4602.5" fill="none" stroke="#2563A6" stroke-width="2.2" stroke-linecap="round" stroke-linejoin="round" marker-end="url(#control-arrow)"/>
<polyline points="940,4690 940,4702 800,4702 800,4715" fill="none" stroke="#2563A6" stroke-width="2.2" stroke-linecap="round" stroke-linejoin="round" marker-end="url(#control-arrow)"/>
<polyline points="1190,4080.0 1215,4080 1215,4810 1100,4810 1100,4810.0" fill="none" stroke="#52606D" stroke-width="2.2" stroke-linecap="round" stroke-linejoin="round" marker-end="url(#data-arrow)"/>
<rect x="130" y="230" width="500" height="160" rx="14" fill="#EFF6FF" stroke="#3B6EA5" stroke-width="1.6"/>
<rect x="130" y="230" width="7" height="160" rx="3.5" fill="#3B6EA5" opacity="0.9"/>
<text x="154" y="267" class="node-title" text-anchor="start">Operator, native GUI and E-stop</text>
<text x="154" y="300" class="detail" text-anchor="start"><tspan x="154" dy="0">choose target and next-mission settings</tspan><tspan x="154" dy="23">review rays, status and diagnostics</tspan><tspan x="154" dy="23">start, observe or cancel</tspan><tspan x="154" dy="23">emergency stop remains independent</tspan></text>
<rect x="690" y="230" width="500" height="160" rx="14" fill="#EFF6FF" stroke="#3B6EA5" stroke-width="1.6"/>
<rect x="690" y="230" width="7" height="160" rx="3.5" fill="#3B6EA5" opacity="0.9"/>
<text x="714" y="267" class="node-title" text-anchor="start">Tracked-robot gateway</text>
<text x="714" y="300" class="detail" text-anchor="start"><tspan x="714" dy="0">SCAN_3D request + rough target</tspan><tspan x="714" dy="23">odom -&gt; piper_base_link snapshot</tspan><tspan x="714" dy="23">task heartbeat + home report</tspan><tspan x="714" dy="23">base remains stationary and braked</tspan></text>
<rect x="220" y="415" width="880" height="155" rx="14" fill="#E5F7F3" stroke="#147D70" stroke-width="1.6"/>
<rect x="220" y="415" width="7" height="155" rx="3.5" fill="#147D70" opacity="0.9"/>
<text x="244" y="452" class="node-title" text-anchor="start">Frozen mission contract</text>
<text x="244" y="485" class="detail" text-anchor="start"><tspan x="244" dy="0">target profile + scan/NBV policy</tspan><tspan x="244" dy="23">planner backend + speed + motion opt-ins</tspan><tspan x="244" dy="23">validated before admission; immutable in flight</tspan><tspan x="244" dy="23">canonical mission SHA-256 binds every downstream result</tspan></text>
<rect x="130" y="675" width="500" height="165" rx="14" fill="#E5F7F3" stroke="#147D70" stroke-width="1.6"/>
<rect x="130" y="675" width="7" height="165" rx="3.5" fill="#147D70" opacity="0.9"/>
<text x="154" y="712" class="node-title" text-anchor="start">RunTargetScan coordinator</text>
<text x="154" y="745" class="detail" text-anchor="start"><tspan x="154" dy="0">queues and admits one immutable goal</tspan><tspan x="154" dy="23">binds task, target and backend identity</tspan><tspan x="154" dy="23">publishes typed action feedback</tspan><tspan x="154" dy="23">returns mission result + dataset reference</tspan></text>
<rect x="690" y="675" width="500" height="175" rx="14" fill="#FDE9E7" stroke="#B33A3A" stroke-width="1.6"/>
<rect x="690" y="675" width="7" height="175" rx="3.5" fill="#B33A3A" opacity="0.9"/>
<text x="714" y="712" class="node-title" text-anchor="start">ProcessSupervisor</text>
<text x="714" y="745" class="detail" text-anchor="start"><tspan x="714" dy="0">owns one exact process generation</tspan><tspan x="714" dy="23">starts driver -&gt; vision -&gt; calibration</tspan><tspan x="714" dy="23">starts exactly one selected planner</tspan><tspan x="714" dy="23">monitors heartbeats and bounded cleanup</tspan><tspan x="714" dy="23">never adopts unrelated processes</tspan></text>
<rect x="220" y="875" width="880" height="210" rx="14" fill="#FDE9E7" stroke="#B33A3A" stroke-width="1.6"/>
<rect x="220" y="875" width="7" height="210" rx="3.5" fill="#B33A3A" opacity="0.9"/>
<text x="244" y="912" class="node-title" text-anchor="start">MissionEngine lifecycle</text>
<text x="244" y="945" class="detail" text-anchor="start"><tspan x="244" dy="0">preflight -&gt; enable/hold -&gt; startup wrist</tspan><tspan x="244" dy="23">rough home -&gt; bounded target acquisition</tspan><tspan x="244" dy="23">workflow ready -&gt; one-view closed loop</tspan><tspan x="244" dy="23">terminal PRE_HOME -&gt; ROUGH_HOME -&gt; STORAGE_WRIST</tspan><tspan x="244" dy="23">prove all-six disable and revoke authorization</tspan><tspan x="244" dy="23">motor-authority loss permits no new command</tspan></text>
<rect x="130" y="1200" width="500" height="160" rx="14" fill="#EAF3FF" stroke="#2563A6" stroke-width="1.6"/>
<rect x="130" y="1200" width="7" height="160" rx="3.5" fill="#2563A6" opacity="0.9"/>
<text x="154" y="1237" class="node-title" text-anchor="start">Eye-in-hand L515 evidence</text>
<text x="154" y="1270" class="detail" text-anchor="start"><tspan x="154" dy="0">RGB + aligned/native depth</tspan><tspan x="154" dy="23">4-bit confidence + CameraInfo</tspan><tspan x="154" dy="23">source timestamps at 30 Hz</tspan><tspan x="154" dy="23">settled capture uses new synchronized frames</tspan></text>
<rect x="690" y="1200" width="500" height="185" rx="14" fill="#EAF3FF" stroke="#2563A6" stroke-width="1.6"/>
<rect x="690" y="1200" width="7" height="185" rx="3.5" fill="#2563A6" opacity="0.9"/>
<text x="714" y="1237" class="node-title" text-anchor="start">Timing, TF and hand-eye calibration</text>
<text x="714" y="1270" class="detail" text-anchor="start"><tspan x="714" dy="0">camera timestamp watchdog</tspan><tspan x="714" dy="23">accepted optical-frame transform</tspan><tspan x="714" dy="23">base_link &lt;-&gt; optical frame</tspan><tspan x="714" dy="23">fresh joints and camera pose</tspan><tspan x="714" dy="23">fault may restart only owned vision work</tspan></text>
<rect x="130" y="1395" width="500" height="185" rx="14" fill="#F2EAFF" stroke="#7851A9" stroke-width="1.6"/>
<rect x="130" y="1395" width="7" height="185" rx="3.5" fill="#7851A9" opacity="0.9"/>
<text x="154" y="1432" class="node-title" text-anchor="start">Isolated CUDA perception</text>
<text x="154" y="1465" class="detail" text-anchor="start"><tspan x="154" dy="0">GroundingDINO acquire / correlated refresh</tspan><tspan x="154" dy="23">SAM 2 seed + live mask propagation</tspan><tspan x="154" dy="23">permission-bounded request/result spools</tspan><tspan x="154" dy="23">current-generation readiness and heartbeat</tspan><tspan x="154" dy="23">ROS-free workers; no motor interface</tspan></text>
<rect x="690" y="1395" width="500" height="185" rx="14" fill="#F2EAFF" stroke="#7851A9" stroke-width="1.6"/>
<rect x="690" y="1395" width="7" height="185" rx="3.5" fill="#7851A9" opacity="0.9"/>
<text x="714" y="1432" class="node-title" text-anchor="start">ROS perception geometry</text>
<text x="714" y="1465" class="detail" text-anchor="start"><tspan x="714" dy="0">mask -&gt; detection -&gt; qualified depth</tspan><tspan x="714" dy="23">Target3D + Kalman target tracker</tspan><tspan x="714" dy="23">target cloud, landmark and envelope</tspan><tspan x="714" dy="23">obstacles + quality + occlusion</tspan><tspan x="714" dy="23">freshness and correlation metadata</tspan></text>
<rect x="130" y="1595" width="500" height="125" rx="14" fill="#E5F7F3" stroke="#147D70" stroke-width="1.6"/>
<rect x="130" y="1595" width="7" height="125" rx="3.5" fill="#147D70" opacity="0.9"/>
<text x="154" y="1632" class="node-title" text-anchor="start">Measured target state</text>
<text x="154" y="1665" class="detail" text-anchor="start"><tspan x="154" dy="0">stable base-frame target + covariance</tspan><tspan x="154" dy="23">TRACKING / LOW_CONFIDENCE / LOST</tspan></text>
<rect x="690" y="1595" width="500" height="125" rx="14" fill="#E5F7F3" stroke="#147D70" stroke-width="1.6"/>
<rect x="690" y="1595" width="7" height="125" rx="3.5" fill="#147D70" opacity="0.9"/>
<text x="714" y="1632" class="node-title" text-anchor="start">Scene safety evidence</text>
<text x="714" y="1665" class="detail" text-anchor="start"><tspan x="714" dy="0">obstacles, target envelope and framing</tspan><tspan x="714" dy="23">occlusion, quality and tracking health</tspan></text>
<rect x="130" y="1905" width="500" height="210" rx="14" fill="#E5F7F3" stroke="#147D70" stroke-width="1.6"/>
<rect x="130" y="1905" width="7" height="210" rx="3.5" fill="#147D70" opacity="0.9"/>
<text x="154" y="1942" class="node-title" text-anchor="start">Accepted-only scan memory</text>
<text x="154" y="1975" class="detail" text-anchor="start"><tspan x="154" dy="0">schema-2 captures + achieved FK</tspan><tspan x="154" dy="23">5 mm measured coverage grid</tspan><tspan x="154" dy="23">unknown / observed target surface</tspan><tspan x="154" dy="23">accepted generation is explicit</tspan><tspan x="154" dy="23">rejected views never add coverage</tspan></text>
<rect x="690" y="1905" width="500" height="210" rx="14" fill="#FFF3D9" stroke="#B77900" stroke-width="1.6"/>
<rect x="690" y="1905" width="7" height="210" rx="3.5" fill="#B77900" opacity="0.9"/>
<text x="714" y="1942" class="node-title" text-anchor="start">Closed-loop NBV and ray policy</text>
<text x="714" y="1975" class="detail" text-anchor="start"><tspan x="714" dy="0">legacy, voxel_nbv or frozen ray_nbv</tspan><tspan x="714" dy="23">seed from actual current FK</tspan><tspan x="714" dy="23">rank marginal information before travel</tspan><tspan x="714" dy="23">direction novelty + bounded standoff</tspan><tspan x="714" dy="23">one accepted view per generation</tspan><tspan x="714" dy="23">complete or exhaust the safe frontier</tspan></text>
<rect x="220" y="2140" width="880" height="165" rx="14" fill="#FFF3D9" stroke="#B77900" stroke-width="1.6"/>
<rect x="220" y="2140" width="7" height="165" rx="3.5" fill="#B77900" opacity="0.9"/>
<text x="244" y="2177" class="node-title" text-anchor="start">Command-free prequalification</text>
<text x="244" y="2210" class="detail" text-anchor="start"><tspan x="244" dy="0">workspace/capability evidence removes hard culls</tspan><tspan x="244" dy="23">target-facing aim with bounded orientation fallback</tspan><tspan x="244" dy="23">shortlist at most 12 voxel points or 6 ray directions</tspan><tspan x="244" dy="23">no motor command is possible at this stage</tspan></text>
<rect x="220" y="2415" width="880" height="210" rx="14" fill="#FFF3D9" stroke="#B77900" stroke-width="1.6"/>
<rect x="220" y="2415" width="7" height="210" rx="3.5" fill="#B77900" opacity="0.9"/>
<text x="244" y="2452" class="node-title" text-anchor="start">MotionPlannerBridge (ROS 2 Foxy)</text>
<text x="244" y="2485" class="detail" text-anchor="start"><tspan x="244" dy="0">freezes tesseract or curobo for the mission</tspan><tspan x="244" dy="23">requires matching worker generation and readiness</tspan><tspan x="244" dy="23">snapshots joints, limits, target, camera and scene</tspan><tspan x="244" dy="23">binds robot/world/calibration hashes and requested views</tspan><tspan x="244" dy="23">writes private command-free schema-v5 request</tspan><tspan x="244" dy="23">publishes correlated status, blockers and provenance</tspan></text>
<rect x="130" y="2650" width="500" height="205" rx="14" fill="#FFF3D9" stroke="#B77900" stroke-width="1.6"/>
<rect x="130" y="2650" width="7" height="205" rx="3.5" fill="#B77900" opacity="0.9"/>
<text x="154" y="2707" class="node-title" text-anchor="start">Tesseract 0.35 worker</text>
<text x="154" y="2738" class="detail" text-anchor="start"><tspan x="154" dy="0">ROS-free exact IK, collision and path</tspan><tspan x="154" dy="23">configured moving + fixed meshes</tspan><tspan x="154" dy="23">qualified baseline and startup recovery</tspan><tspan x="154" dy="23">atomic request/response spool</tspan></text>
<rect x="154" y="2663" width="128.6" height="23" rx="11.5" fill="#B77900"/>
<text x="218.3" y="2679" class="badge" text-anchor="middle">MAIN + BRANCH</text>
<rect x="690" y="2650" width="500" height="205" rx="14" fill="#F7F7F8" stroke="#929AA5" stroke-width="1.6"/>
<rect x="690" y="2650" width="7" height="205" rx="3.5" fill="#929AA5" opacity="0.9"/>
<text x="714" y="2707" class="node-title" text-anchor="start">cuRobo 0.7.8 MotionGen worker</text>
<text x="714" y="2738" class="detail" text-anchor="start"><tspan x="714" dy="0">Python 3.10 + CUDA; ROS-free</tspan><tspan x="714" dy="23">exact fixed Bunker meshes</tspan><tspan x="714" dy="23">167-sphere articulated approximation</tspan><tspan x="714" dy="23">hardware_qualified=false; motion blocked</tspan><tspan x="714" dy="23">no automatic Tesseract fallback</tspan></text>
<rect x="714" y="2663" width="112.19999999999999" height="23" rx="11.5" fill="#929AA5"/>
<text x="770.1" y="2679" class="badge" text-anchor="middle">BRANCH ONLY</text>
<rect x="220" y="2880" width="880" height="210" rx="14" fill="#E5F7F3" stroke="#147D70" stroke-width="1.6"/>
<rect x="220" y="2880" width="7" height="210" rx="3.5" fill="#147D70" opacity="0.9"/>
<text x="244" y="2917" class="node-title" text-anchor="start">Validated planner transport</text>
<text x="244" y="2950" class="detail" text-anchor="start"><tspan x="244" dy="0">main: TesseractPlan</tspan><tspan x="244" dy="23">integration branch: generic MotionPlan</tspan><tspan x="244" dy="23">backend, request, plan and trajectory hashes</tspan><tspan x="244" dy="23">complete timed six-joint trajectory + metrics</tspan><tspan x="244" dy="23">collision qualification and rejection diagnostics</tspan><tspan x="244" dy="23">planner output remains a proposal only</tspan></text>
<rect x="130" y="3200" width="500" height="165" rx="14" fill="#FDE9E7" stroke="#B33A3A" stroke-width="1.6"/>
<rect x="130" y="3200" width="7" height="165" rx="3.5" fill="#B33A3A" opacity="0.9"/>
<text x="154" y="3237" class="node-title" text-anchor="start">Common plan normalization</text>
<text x="154" y="3270" class="detail" text-anchor="start"><tspan x="154" dy="0">six finite joints in canonical order</tspan><tspan x="154" dy="23">20 Hz schedule + 0.05 rad step</tspan><tspan x="154" dy="23">speed-scaled MoveJ limits</tspan><tspan x="154" dy="23">fresh-start and trajectory hashes</tspan></text>
<rect x="690" y="3200" width="500" height="165" rx="14" fill="#FDE9E7" stroke="#B33A3A" stroke-width="1.6"/>
<rect x="690" y="3200" width="7" height="165" rx="3.5" fill="#B33A3A" opacity="0.9"/>
<text x="714" y="3237" class="node-title" text-anchor="start">PlanAuthorizer</text>
<text x="714" y="3270" class="detail" text-anchor="start"><tspan x="714" dy="0">live mission + backend authorization</tspan><tspan x="714" dy="23">exact plan and trajectory identity</tspan><tspan x="714" dy="23">TTL, target drift and dependencies</tspan><tspan x="714" dy="23">fresh complete-path revalidation</tspan></text>
<rect x="130" y="3390" width="500" height="220" rx="14" fill="#FDE9E7" stroke="#B33A3A" stroke-width="1.6"/>
<rect x="130" y="3390" width="7" height="220" rx="3.5" fill="#B33A3A" opacity="0.9"/>
<text x="154" y="3447" class="node-title" text-anchor="start">scan_viewpoint_executor</text>
<text x="154" y="3478" class="detail" text-anchor="start"><tspan x="154" dy="0">sole autonomous joint publisher</tspan><tspan x="154" dy="23">TrajectoryRunner owns the 20 Hz schedule</tspan><tspan x="154" dy="23">runtime freshness + scene gates</tspan><tspan x="154" dy="23">following error, timeout and settle proof</tspan><tspan x="154" dy="23">hold, refresh, replan or recover</tspan><tspan x="154" dy="23">publishes ScanExecutionStatus</tspan></text>
<rect x="154" y="3403" width="128.6" height="23" rx="11.5" fill="#B33A3A"/>
<text x="218.3" y="3419" class="badge" text-anchor="middle">COMMAND OWNER</text>
<rect x="690" y="3390" width="500" height="220" rx="14" fill="#EEF1F4" stroke="#46515E" stroke-width="1.6"/>
<rect x="690" y="3390" width="7" height="220" rx="3.5" fill="#46515E" opacity="0.9"/>
<text x="714" y="3447" class="node-title" text-anchor="start">PiPER driver / SocketCAN</text>
<text x="714" y="3478" class="detail" text-anchor="start"><tspan x="714" dy="0">/joint_ctrl_single -&gt; MoveJ</tspan><tspan x="714" dy="23">SocketCAN at 1 Mbps</tspan><tspan x="714" dy="23">enable/disable + motor watchdogs</tspan><tspan x="714" dy="23">six motors + coherent joint feedback</tspan></text>
<rect x="714" y="3403" width="96" height="23" rx="11.5" fill="#46515E"/>
<text x="762.0" y="3419" class="badge" text-anchor="middle">CAN OWNER</text>
<rect x="130" y="3780" width="500" height="180" rx="14" fill="#FDE9E7" stroke="#B33A3A" stroke-width="1.6"/>
<rect x="130" y="3780" width="7" height="180" rx="3.5" fill="#B33A3A" opacity="0.9"/>
<text x="154" y="3817" class="node-title" text-anchor="start">Settled capture request</text>
<text x="154" y="3850" class="detail" text-anchor="start"><tspan x="154" dy="0">actual FK + target-facing aim</tspan><tspan x="154" dy="23">stationary joints + healthy clock</tspan><tspan x="154" dy="23">fresh target/scene evidence</tspan><tspan x="154" dy="23">executor enters CAPTURING_RGBD</tspan></text>
<rect x="690" y="3780" width="500" height="190" rx="14" fill="#EAF3FF" stroke="#2563A6" stroke-width="1.6"/>
<rect x="690" y="3780" width="7" height="190" rx="3.5" fill="#2563A6" opacity="0.9"/>
<text x="714" y="3817" class="node-title" text-anchor="start">Confidence-qualified RGB-D burst</text>
<text x="714" y="3850" class="detail" text-anchor="start"><tspan x="714" dy="0">exact mask/RGB stamp identity</tspan><tspan x="714" dy="23">20 new depth + confidence frames</tspan><tspan x="714" dy="23">grade &gt;=8 and &gt;=0.50 support</tspan><tspan x="714" dy="23">median depth + capture-time TF</tspan><tspan x="714" dy="23">target-component ambiguity gate</tspan></text>
<rect x="130" y="3985" width="500" height="190" rx="14" fill="#FDE9E7" stroke="#B33A3A" stroke-width="1.6"/>
<rect x="130" y="3985" width="7" height="190" rx="3.5" fill="#B33A3A" opacity="0.9"/>
<text x="154" y="4022" class="node-title" text-anchor="start">Capture admission</text>
<text x="154" y="4055" class="detail" text-anchor="start"><tspan x="154" dy="0">GOOD target + fresh diagnostics</tspan><tspan x="154" dy="23">CLEAR or correlated occlusion proof</tspan><tspan x="154" dy="23">matching achieved FK and plan provenance</tspan><tspan x="154" dy="23">atomic artifacts + manifest hashes</tspan><tspan x="154" dy="23">decide ACCEPT, RETRY or REJECT</tspan></text>
<rect x="690" y="3985" width="500" height="190" rx="14" fill="#E5F7F3" stroke="#147D70" stroke-width="1.6"/>
<rect x="690" y="3985" width="7" height="190" rx="3.5" fill="#147D70" opacity="0.9"/>
<text x="714" y="4022" class="node-title" text-anchor="start">Immutable schema-2 dataset</text>
<text x="714" y="4055" class="detail" text-anchor="start"><tspan x="714" dy="0">RGB, raw/qualified depth and mask</tspan><tspan x="714" dy="23">intrinsics, joints and capture-time TF</tspan><tspan x="714" dy="23">view/plan provenance + quality</tspan><tspan x="714" dy="23">target support and model seed</tspan><tspan x="714" dy="23">transactional manifest SHA-256</tspan></text>
<rect x="130" y="4200" width="500" height="145" rx="14" fill="#FDE9E7" stroke="#B33A3A" stroke-width="1.6"/>
<rect x="130" y="4200" width="7" height="145" rx="3.5" fill="#B33A3A" opacity="0.9"/>
<text x="154" y="4237" class="node-title" text-anchor="start">Retry / rejected observation</text>
<text x="154" y="4270" class="detail" text-anchor="start"><tspan x="154" dy="0">hold achieved FK; add no coverage</tspan><tspan x="154" dy="23">one correlated heavy refresh</tspan><tspan x="154" dy="23">then exclude and replan from actual pose</tspan></text>
<rect x="690" y="4200" width="500" height="145" rx="14" fill="#E5F7F3" stroke="#147D70" stroke-width="1.6"/>
<rect x="690" y="4200" width="7" height="145" rx="3.5" fill="#147D70" opacity="0.9"/>
<text x="714" y="4237" class="node-title" text-anchor="start">Accepted history generation</text>
<text x="714" y="4270" class="detail" text-anchor="start"><tspan x="714" dy="0">commit achieved pose + evidence</tspan><tspan x="714" dy="23">rebuild measured coverage</tspan><tspan x="714" dy="23">request the next qualified view</tspan></text>
<rect x="130" y="4515" width="500" height="175" rx="14" fill="#FDE9E7" stroke="#B33A3A" stroke-width="1.6"/>
<rect x="130" y="4515" width="7" height="175" rx="3.5" fill="#B33A3A" opacity="0.9"/>
<text x="154" y="4552" class="node-title" text-anchor="start">Safe terminal recovery</text>
<text x="154" y="4585" class="detail" text-anchor="start"><tspan x="154" dy="0">cancel, completion or bounded failure</tspan><tspan x="154" dy="23">PRE_HOME -&gt; ROUGH_HOME -&gt; STORAGE_WRIST</tspan><tspan x="154" dy="23">disable all six and revoke authorization</tspan><tspan x="154" dy="23">stop only mission-owned child processes</tspan></text>
<rect x="690" y="4515" width="500" height="175" rx="14" fill="#EFF6FF" stroke="#3B6EA5" stroke-width="1.6"/>
<rect x="690" y="4515" width="7" height="175" rx="3.5" fill="#3B6EA5" opacity="0.9"/>
<text x="714" y="4552" class="node-title" text-anchor="start">Tracked-base correlation</text>
<text x="714" y="4585" class="detail" text-anchor="start"><tspan x="714" dy="0">arm result may wait for base home</tspan><tspan x="714" dy="23">bind task, job and manifest identity</tspan><tspan x="714" dy="23">gateway accepts idempotent report</tspan><tspan x="714" dy="23">this repository sends no chassis command</tspan></text>
<rect x="220" y="4715" width="880" height="190" rx="14" fill="#E5F7F3" stroke="#147D70" stroke-width="1.6"/>
<rect x="220" y="4715" width="7" height="190" rx="3.5" fill="#147D70" opacity="0.9"/>
<text x="244" y="4752" class="node-title" text-anchor="start">Offline reconstruction</text>
<text x="244" y="4785" class="detail" text-anchor="start"><tspan x="244" dy="0">admit immutable inputs and verify every hash</tspan><tspan x="244" dy="23">target-only Open3D TSDF; 3 mm voxels by default</tspan><tspan x="244" dy="23">optional bounded GICP / scene pose graph</tspan><tspan x="244" dy="23">mesh + cloud + quality metrics + provenance</tspan><tspan x="244" dy="23">failure is separate and never rewrites mission safety</tspan></text>
<rect x="462.6" y="561" width="154.79999999999998" height="23" rx="5" class="edge-label-bg"/>
<text x="540" y="578" class="edge-label" text-anchor="middle">frozen goal + hash</text>
<rect x="298.8" y="1085" width="162.4" height="23" rx="5" class="edge-label-bg"/>
<text x="380" y="1102" class="edge-label" text-anchor="middle">ordered acquisition</text>
<rect x="325.4" y="1348.5" width="109.19999999999999" height="23" rx="5" class="edge-label-bg"/>
<text x="380.0" y="1365.5" class="edge-label" text-anchor="middle">RGB-D frames</text>
<rect x="862.6" y="1358.5" width="154.79999999999998" height="23" rx="5" class="edge-label-bg"/>
<text x="940.0" y="1375.5" class="edge-label" text-anchor="middle">TF + camera health</text>
<rect x="537.6" y="1561" width="154.79999999999998" height="23" rx="5" class="edge-label-bg"/>
<text x="615" y="1578" class="edge-label" text-anchor="middle">qualified Target3D</text>
<rect x="903.8" y="1561" width="162.4" height="23" rx="5" class="edge-label-bg"/>
<text x="985" y="1578" class="edge-label" text-anchor="middle">quality + obstacles</text>
<rect x="1007.8" y="1741" width="109.19999999999999" height="23" rx="5" class="edge-label-bg"/>
<text x="1110" y="1758" class="edge-label" text-anchor="end">fresh target</text>
<rect x="1121.0" y="2013" width="94.0" height="23" rx="5" class="edge-label-bg"/>
<text x="1208" y="2030" class="edge-label" text-anchor="end">safe scene</text>
<rect x="780.2" y="2106" width="139.6" height="23" rx="5" class="edge-label-bg"/>
<text x="850" y="2123" class="edge-label" text-anchor="middle">ranked shortlist</text>
<rect x="575.0" y="2299" width="170.0" height="23" rx="5" class="edge-label-bg"/>
<text x="660" y="2316" class="edge-label" text-anchor="middle">candidate views only</text>
<rect x="353.6" y="2616" width="192.79999999999998" height="23" rx="5" class="edge-label-bg"/>
<text x="450" y="2633" class="edge-label" text-anchor="middle">main / selected backend</text>
<rect x="788.8" y="2616" width="162.4" height="23" rx="5" class="edge-label-bg"/>
<text x="870" y="2633" class="edge-label" text-anchor="middle">branch-only backend</text>
<rect x="372.6" y="2846" width="154.79999999999998" height="23" rx="5" class="edge-label-bg"/>
<text x="450" y="2863" class="edge-label" text-anchor="middle">validated response</text>
<rect x="792.6" y="2846" width="154.79999999999998" height="23" rx="5" class="edge-label-bg"/>
<text x="870" y="2863" class="edge-label" text-anchor="middle">MotionGen response</text>
<rect x="391.6" y="3083" width="116.8" height="23" rx="5" class="edge-label-bg"/>
<text x="450" y="3100" class="edge-label" text-anchor="middle">proposal only</text>
<rect x="597.8" y="3356" width="124.39999999999999" height="23" rx="5" class="edge-label-bg"/>
<text x="660" y="3373" class="edge-label" text-anchor="middle">exact approval</text>
<rect x="306.4" y="3658" width="147.2" height="23" rx="5" class="edge-label-bg"/>
<text x="380" y="3675" class="edge-label" text-anchor="middle">settled viewpoint</text>
<rect x="571.2" y="3951" width="177.6" height="23" rx="5" class="edge-label-bg"/>
<text x="660" y="3968" class="edge-label" text-anchor="middle">qualified observation</text>
<rect x="317.8" y="4163.5" width="124.39999999999999" height="23" rx="5" class="edge-label-bg"/>
<text x="380.0" y="4180.5" class="edge-label" text-anchor="middle">RETRY / REJECT</text>
<rect x="858.8" y="4163.5" width="162.4" height="23" rx="5" class="edge-label-bg"/>
<text x="940.0" y="4180.5" class="edge-label" text-anchor="middle">accepted generation</text>
<rect x="85" y="4363" width="101.6" height="23" rx="5" class="edge-label-bg"/>
<text x="92" y="4380" class="edge-label" text-anchor="start">F4 accepted</text>
<rect x="55" y="4338" width="109.19999999999999" height="23" rx="5" class="edge-label-bg"/>
<text x="62" y="4355" class="edge-label" text-anchor="start">F3 reacquire</text>
<rect x="65" y="2481" width="147.2" height="23" rx="5" class="edge-label-bg"/>
<text x="72" y="2498" class="edge-label" text-anchor="start">retire failed ray</text>
<rect x="1114.2" y="3283" width="116.8" height="23" rx="5" class="edge-label-bg"/>
<text x="1224" y="3300" class="edge-label" text-anchor="end">F2 live scene</text>
<rect x="1129.0" y="3083" width="132.0" height="23" rx="5" class="edge-label-bg"/>
<text x="1254" y="3100" class="edge-label" text-anchor="end">F1 joint limits</text>
<rect x="1095.8" y="1083" width="185.2" height="23" rx="5" class="edge-label-bg"/>
<text x="1274" y="1100" class="edge-label" text-anchor="end">motor / disable status</text>
<rect x="1040.6" y="4395" width="200.39999999999998" height="23" rx="5" class="edge-label-bg"/>
<text x="1234" y="4412" class="edge-label" text-anchor="end">complete / cancel / fail</text>
<rect x="758.4" y="4681" width="223.2" height="23" rx="5" class="edge-label-bg"/>
<text x="870" y="4698" class="edge-label" text-anchor="middle">correlated base-home report</text>
<rect x="1050.2" y="4433" width="154.79999999999998" height="23" rx="5" class="edge-label-bg"/>
<text x="1198" y="4450" class="edge-label" text-anchor="end">immutable captures</text>
<text x="660.0" y="5010" class="note" text-anchor="middle">Red is the sole motor-command edge. Dashed green paths are measured feedback, retry or replanning.</text>
</g>
</svg>

